<svg version="1.1" xmlns="http://www.w3.org/2000/svg" viewBox="0 0 2088.4536789156537 1120.6568748321574" width="2088.4536789156537" height="1120.6568748321574">
  <!-- svg-source:excalidraw -->
  
  <defs>
    <style class="style-fonts">
      @font-face {
        font-family: "Virgil";
        src: url("https://excalidraw.com/Virgil.woff2");
      }
      @font-face {
        font-family: "Cascadia";
        src: url("https://excalidraw.com/Cascadia.woff2");
      }
    </style>
  </defs>
  <rect x="0" y="0" width="2088.4536789156537" height="1120.6568748321574" fill="#ffffff"></rect><g stroke-linecap="round" transform="translate(577.2898889691198 10) rotate(0 750.5818949732669 471.41044224994505)"><path d="M32 0 M32 0 C433.53 0.3, 834.32 -0.06, 1469.16 0 M32 0 C510.38 -4.76, 988.77 -5.25, 1469.16 0 M1469.16 0 C1489.23 -1.77, 1502.68 11.87, 1501.16 32 M1469.16 0 C1488.47 -1.99, 1499.28 11.49, 1501.16 32 M1501.16 32 C1498.62 212.44, 1499.75 392.44, 1501.16 910.82 M1501.16 32 C1502.38 300.81, 1503.07 568.48, 1501.16 910.82 M1501.16 910.82 C1501.6 932.15, 1489.3 941.89, 1469.16 942.82 M1501.16 910.82 C1501.85 930.57, 1489.29 943.05, 1469.16 942.82 M1469.16 942.82 C1008.41 940.22, 549.04 939.99, 32 942.82 M1469.16 942.82 C1023.91 938.9, 578.22 939.07, 32 942.82 M32 942.82 C9.64 942.14, -1.69 931.76, 0 910.82 M32 942.82 C11.48 941.22, -1.73 933.91, 0 910.82 M0 910.82 C1.8 726.77, 2.07 544.43, 0 32 M0 910.82 C1.85 716.85, 2.19 522.82, 0 32 M0 32 C-1 11.02, 8.82 -1.83, 32 0 M0 32 C-0.79 9.01, 10.23 2.14, 32 0" stroke="#000000" stroke-width="1" fill="none"></path></g><g stroke-linecap="round" transform="translate(10 590.8367903307762) rotate(0 117.5 50.00000000000003)"><path d="M25 0 M25 0 C83.47 2.51, 138.03 -1.15, 210 0 M25 0 C82.34 -0.83, 137.33 -1.18, 210 0 M210 0 C225.78 -1, 235.59 10.32, 235 25 M210 0 C227.71 -1.97, 236.78 7.31, 235 25 M235 25 C236.75 43.43, 235.58 66.3, 235 75 M235 25 C234.7 36.47, 235.55 46.88, 235 75 M235 75 C234.58 92.08, 226.31 100.45, 210 100 M235 75 C235.24 93.2, 227.59 100.17, 210 100 M210 100 C142.12 101.75, 69.99 99.85, 25 100 M210 100 C160.36 100.25, 109.52 101.18, 25 100 M25 100 C7.78 98.54, 0.04 92.3, 0 75 M25 100 C7.26 98.63, 1.89 93.33, 0 75 M0 75 C0.58 63.7, -1.71 55.3, 0 25 M0 75 C0.49 64.84, 0.37 52.9, 0 25 M0 25 C-1.61 9.68, 6.63 0.3, 25 0 M0 25 C0.01 8.44, 8.12 -0.17, 25 0" stroke="#000000" stroke-width="1" fill="none"></path></g><g transform="translate(30.760116577148438 628.3367903307762) rotate(0 96.73988342285156 12.5)"><text x="96.73988342285156" y="0" font-family="Virgil, Segoe UI Emoji" font-size="20px" fill="#000000" text-anchor="middle" style="white-space: pre;" direction="ltr" dominant-baseline="text-before-edge">prometheus-otel-poc</text></g><g stroke-linecap="round" transform="translate(698.8897034267745 49.58921290984108) rotate(0 128 59)"><path d="M29.5 0 M29.5 0 C92.42 1.59, 151.34 1.18, 226.5 0 M29.5 0 C71.35 -0.72, 113.04 -0.65, 226.5 0 M226.5 0 C244.35 1.53, 256.48 11.25, 256 29.5 M226.5 0 C244.21 -2.01, 254.89 8.45, 256 29.5 M256 29.5 C256.85 40.63, 253.73 54.64, 256 88.5 M256 29.5 C256.48 44.37, 256.21 56.56, 256 88.5 M256 88.5 C257.98 108.43, 247.13 116.5, 226.5 118 M256 88.5 C253.88 109.04, 244.14 115.84, 226.5 118 M226.5 118 C164.73 116.59, 100.42 118.65, 29.5 118 M226.5 118 C157.46 119.79, 89.27 119.19, 29.5 118 M29.5 118 C8.4 119.56, 0.87 107.72, 0 88.5 M29.5 118 C9.35 119.94, 0.12 106.86, 0 88.5 M0 88.5 C-1.31 75.05, 0.83 59.13, 0 29.5 M0 88.5 C-0.56 72.18, 0.1 55.31, 0 29.5 M0 29.5 C1.51 10.41, 9.36 0.85, 29.5 0 M0 29.5 C-0.62 9.31, 10.89 1.17, 29.5 0" stroke="#000000" stroke-width="1" fill="none"></path></g><g transform="translate(714.7098251919112 96.08921290984108) rotate(0 112.17987823486328 12.5)"><text x="112.17987823486328" y="0" font-family="Virgil, Segoe UI Emoji" font-size="20px" fill="#000000" text-anchor="middle" style="white-space: pre;" direction="ltr" dominant-baseline="text-before-edge">opentelemetry-collector</text></g><g stroke-linecap="round" transform="translate(1487.9292776559196 763.1296538170458) rotate(0 135 47)"><path d="M23.5 0 M23.5 0 C75.34 0.51, 127.1 1.72, 246.5 0 M23.5 0 C101.46 -0.78, 179.6 -0.27, 246.5 0 M246.5 0 C261.75 0.27, 271.77 6.86, 270 23.5 M246.5 0 C262.62 2.2, 268.2 9.04, 270 23.5 M270 23.5 C269.65 39.68, 267.55 53.36, 270 70.5 M270 23.5 C270.19 33.75, 269.84 42.73, 270 70.5 M270 70.5 C269.88 87.04, 262.02 93.5, 246.5 94 M270 70.5 C270.34 86.51, 264.33 95.49, 246.5 94 M246.5 94 C169.39 97.22, 93.11 96.06, 23.5 94 M246.5 94 C180.72 95.45, 115.35 94.98, 23.5 94 M23.5 94 C9.66 93.14, 1.83 87.05, 0 70.5 M23.5 94 C10.13 95.96, 0.1 87.48, 0 70.5 M0 70.5 C-1.58 54.1, 1.82 33.57, 0 23.5 M0 70.5 C-0.44 53.36, -0.63 37.25, 0 23.5 M0 23.5 C1.69 9.19, 6.95 -0.86, 23.5 0 M0 23.5 C-0.2 9.01, 8.01 1.79, 23.5 0" stroke="#000000" stroke-width="1" fill="none"></path></g><g transform="translate(1501.2393972848258 797.6296538170458) rotate(0 121.68988037109375 12.5)"><text x="121.68988037109375" y="0" font-family="Virgil, Segoe UI Emoji" font-size="20px" fill="#000000" text-anchor="middle" style="white-space: pre;" direction="ltr" dominant-baseline="text-before-edge">prometheus-alertmanager</text></g><g stroke-linecap="round" transform="translate(1019.5995249643354 299.6378567417786) rotate(0 100 48)"><path d="M24 0 M24 0 C75.4 -1.63, 124.6 0.14, 176 0 M24 0 C58.53 1.45, 94 0.76, 176 0 M176 0 C193.18 1.96, 198.28 7.8, 200 24 M176 0 C193.53 2.09, 197.77 9.86, 200 24 M200 24 C198.74 40.09, 199.8 57.61, 200 72 M200 24 C200.62 37.98, 201.29 52.75, 200 72 M200 72 C201.79 88.99, 192.87 95.36, 176 96 M200 72 C198.68 87.74, 191.61 95.14, 176 96 M176 96 C144.16 97.76, 109.32 97.08, 24 96 M176 96 C118.71 97.32, 61.85 96.81, 24 96 M24 96 C9.35 95.01, 0.29 89.76, 0 72 M24 96 C5.98 95.77, -1.46 89.31, 0 72 M0 72 C0.84 57.49, 0.11 39.64, 0 24 M0 72 C0.82 60.04, -0.29 48.26, 0 24 M0 24 C0.66 8.5, 6.99 -1.32, 24 0 M0 24 C-0.71 10.28, 6.19 -1.2, 24 0" stroke="#000000" stroke-width="1" fill="none"></path></g><g transform="translate(1065.859588135722 335.1378567417786) rotate(0 53.73993682861328 12.5)"><text x="53.73993682861328" y="0" font-family="Virgil, Segoe UI Emoji" font-size="20px" fill="#000000" text-anchor="middle" style="white-space: pre;" direction="ltr" dominant-baseline="text-before-edge">prometheus</text></g><g stroke-linecap="round" transform="translate(644.515908841682 324.6824113180829) rotate(0 156 51)"><path d="M25.5 0 M25.5 0 C123.06 -1.77, 219.84 -3.06, 286.5 0 M25.5 0 C114.91 0.31, 205.71 0.95, 286.5 0 M286.5 0 C302.49 -1.32, 311.38 10.48, 312 25.5 M286.5 0 C301.69 -1.2, 310.2 6.43, 312 25.5 M312 25.5 C312.18 40.65, 313.39 57.14, 312 76.5 M312 25.5 C312.75 38.77, 311.2 53.94, 312 76.5 M312 76.5 C312.98 93.01, 305.17 103.18, 286.5 102 M312 76.5 C313.53 91.44, 302.44 102, 286.5 102 M286.5 102 C222.65 99.52, 155.05 101.67, 25.5 102 M286.5 102 C204.76 102.8, 122.65 103.62, 25.5 102 M25.5 102 C7.66 103.07, 1.33 92.21, 0 76.5 M25.5 102 C9.41 101.92, 1.05 91.75, 0 76.5 M0 76.5 C-2.33 67.09, -0.05 54.05, 0 25.5 M0 76.5 C-0.23 59.77, 0.04 42.27, 0 25.5 M0 25.5 C0.6 7.73, 7.18 0.06, 25.5 0 M0 25.5 C-2.05 8.94, 8.78 -0.17, 25.5 0" stroke="#000000" stroke-width="1" fill="none"></path></g><g transform="translate(681.4360367103343 363.1824113180829) rotate(0 119.07987213134766 12.5)"><text x="119.07987213134766" y="0" font-family="Virgil, Segoe UI Emoji" font-size="20px" fill="#000000" text-anchor="middle" style="white-space: pre;" direction="ltr" dominant-baseline="text-before-edge">prometheus-pushgateway</text></g><g stroke-linecap="round" transform="translate(1918.9658734421555 358.7445680037109) rotate(0 69.5 47)"><path d="M23.5 0 M23.5 0 C51.54 -2.41, 83.37 0.39, 115.5 0 M23.5 0 C49.53 -1.44, 73.76 -0.54, 115.5 0 M115.5 0 C130.15 0.75, 138.06 9.37, 139 23.5 M115.5 0 C129.01 -1.87, 139.94 8.14, 139 23.5 M139 23.5 C137.94 38.01, 139.99 53.1, 139 70.5 M139 23.5 C139.71 40.07, 139.77 55.95, 139 70.5 M139 70.5 C137.33 87.75, 133.07 92.07, 115.5 94 M139 70.5 C140.88 86.57, 130.76 94.63, 115.5 94 M115.5 94 C92.02 93.19, 67.01 94.18, 23.5 94 M115.5 94 C90.56 94.22, 67.54 93.95, 23.5 94 M23.5 94 C9.23 92.32, -1.16 88.06, 0 70.5 M23.5 94 C9.21 92.81, 1.73 84.23, 0 70.5 M0 70.5 C-1.06 54.41, -1.52 43.44, 0 23.5 M0 70.5 C-0.69 59.89, 0.45 47.72, 0 23.5 M0 23.5 C0.43 9.19, 6.39 0.8, 23.5 0 M0 23.5 C-0.29 6.2, 7.14 -0.33, 23.5 0" stroke="#000000" stroke-width="1" fill="none"></path></g><g transform="translate(1949.615897856218 393.2445680037109) rotate(0 38.8499755859375 12.5)"><text x="38.8499755859375" y="0" font-family="Virgil, Segoe UI Emoji" font-size="20px" fill="#000000" text-anchor="middle" style="white-space: pre;" direction="ltr" dominant-baseline="text-before-edge">grafana</text></g><g mask="url(#mask-ig0VI_QFDecRRx-LPbuZC)" stroke-linecap="round"><g transform="translate(262.49766577241746 652.1538914664391) rotate(0 190.37255452589795 -62.52872392788265)"><path d="M0.52 -1.07 C26.77 14.68, 93.19 131.23, 156.67 93.71 C220.15 56.19, 343.88 -173.04, 381.41 -226.17 M-0.66 0.99 C25.56 16.44, 92.47 129.54, 156.03 91.87 C219.6 54.2, 343 -171.84, 380.71 -225.02" stroke="#000000" stroke-width="1" fill="none"></path></g><g transform="translate(262.49766577241746 652.1538914664391) rotate(0 190.37255452589795 -62.52872392788265)"><path d="M372.65 -194.69 C376.96 -202.25, 376.97 -208.36, 382 -225.7 M374.85 -196.68 C375.36 -202.96, 378.16 -209.87, 380.54 -224.32" stroke="#000000" stroke-width="1" fill="none"></path></g><g transform="translate(262.49766577241746 652.1538914664391) rotate(0 190.37255452589795 -62.52872392788265)"><path d="M355.26 -205.59 C363.51 -210.72, 367.53 -214.31, 382 -225.7 M357.47 -207.58 C361.98 -211.39, 368.73 -215.83, 380.54 -224.32" stroke="#000000" stroke-width="1" fill="none"></path></g></g><mask id="mask-ig0VI_QFDecRRx-LPbuZC"><rect x="0" y="0" fill="#fff" width="743.769027470138" height="1071.1691920294738"></rect><rect x="284.13626283935923" y="707.8283916408291" fill="#000" width="268.85980224609375" height="75" opacity="1"></rect></mask><g transform="translate(284.13626283935923 707.8283916408291) rotate(0 168.73395745895618 -118.20322410227266)"><text x="134.42990112304688" y="0" font-family="Virgil, Segoe UI Emoji" font-size="20px" fill="#000000" text-anchor="middle" style="white-space: pre;" direction="ltr" dominant-baseline="text-before-edge">push metrics to</text><text x="134.42990112304688" y="25" font-family="Virgil, Segoe UI Emoji" font-size="20px" fill="#000000" text-anchor="middle" style="white-space: pre;" direction="ltr" dominant-baseline="text-before-edge">-</text><text x="134.42990112304688" y="50" font-family="Virgil, Segoe UI Emoji" font-size="20px" fill="#000000" text-anchor="middle" style="white-space: pre;" direction="ltr" dominant-baseline="text-before-edge">HTTP POST localhost:9091</text></g><g mask="url(#mask-_NZxbol9_4wFdH4E9Xl0o)" stroke-linecap="round"><g transform="translate(1152.6776609142225 408.187035928697) rotate(0 -235.72554273492767 181.6861176289042)"><path d="M-0.54 -0.9 C-16.39 59.78, -17.41 359.44, -96.04 363.11 C-174.67 366.79, -409.38 77.94, -472.31 21.15 M1.38 1.24 C-14.56 62.14, -18.07 360.77, -97.11 364.25 C-176.14 367.72, -410.05 78.83, -472.83 22.07" stroke="#000000" stroke-width="1" fill="none"></path></g><g transform="translate(1152.6776609142225 408.187035928697) rotate(0 -235.72554273492767 181.6861176289042)"><path d="M-447.53 35.17 C-453.08 33.24, -458.93 28.13, -472.11 22.59 M-445.54 34.95 C-451.98 31.84, -457.5 29.15, -472.44 21.33" stroke="#000000" stroke-width="1" fill="none"></path></g><g transform="translate(1152.6776609142225 408.187035928697) rotate(0 -235.72554273492767 181.6861176289042)"><path d="M-462.46 49.25 C-464.62 44.3, -467.2 36.11, -472.11 22.59 M-460.48 49.03 C-463.69 42.99, -466.05 37.32, -472.44 21.33" stroke="#000000" stroke-width="1" fill="none"></path></g></g><mask id="mask-_NZxbol9_4wFdH4E9Xl0o"><rect x="0" y="0" fill="#fff" width="1725.4521711692523" height="872.0702785253134"></rect><rect x="874.1999302302094" y="722.0702785253134" fill="#000" width="365.31964111328125" height="100" opacity="1"></rect></mask><g transform="translate(874.1999302302095 722.0702785253134) rotate(0 42.75218794908551 -132.19712496771214)"><text x="182.65982055664062" y="0" font-family="Virgil, Segoe UI Emoji" font-size="20px" fill="#000000" text-anchor="middle" style="white-space: pre;" direction="ltr" dominant-baseline="text-before-edge">scrapes metrics from</text><text x="182.65982055664062" y="25" font-family="Virgil, Segoe UI Emoji" font-size="20px" fill="#000000" text-anchor="middle" style="white-space: pre;" direction="ltr" dominant-baseline="text-before-edge">-</text><text x="182.65982055664062" y="50" font-family="Virgil, Segoe UI Emoji" font-size="20px" fill="#000000" text-anchor="middle" style="white-space: pre;" direction="ltr" dominant-baseline="text-before-edge">HTTP GET </text><text x="182.65982055664062" y="75" font-family="Virgil, Segoe UI Emoji" font-size="20px" fill="#000000" text-anchor="middle" style="white-space: pre;" direction="ltr" dominant-baseline="text-before-edge">prometheus-pushgateway:9091/metrics</text></g><g mask="url(#mask-v8rWvNYJQi9TQf0VRPOWq)" stroke-linecap="round"><g transform="translate(685.0271124369837 105.16991256695326) rotate(0 -285.52583374232313 238.54661091750847)"><path d="M0.47 -0.92 C-58.4 39.24, -258.55 162.05, -353.88 241.67 C-449.21 321.29, -535.21 437.52, -571.52 476.8 M-0.74 1.21 C-59.74 41.5, -260.26 163.68, -354.98 243.14 C-449.69 322.61, -532.87 438.76, -569.05 478.01" stroke="#000000" stroke-width="1" fill="none"></path></g><g transform="translate(685.0271124369837 105.16991256695326) rotate(0 -285.52583374232313 238.54661091750847)"><path d="M-560.38 449.34 C-561.36 455.4, -563.99 461.94, -568.45 476.24 M-559.1 449.93 C-562.36 460.77, -567.45 469.56, -569.48 478.9" stroke="#000000" stroke-width="1" fill="none"></path></g><g transform="translate(685.0271124369837 105.16991256695326) rotate(0 -285.52583374232313 238.54661091750847)"><path d="M-544.63 462.49 C-549.55 465.4, -556.03 468.73, -568.45 476.24 M-543.35 463.09 C-552.28 469.03, -563.12 473.01, -569.48 478.9" stroke="#000000" stroke-width="1" fill="none"></path></g></g><mask id="mask-v8rWvNYJQi9TQf0VRPOWq"><rect x="0" y="0" fill="#fff" width="1355.7435493230312" height="682.1657459570548"></rect><rect x="106.27236254616173" y="309.45182612729195" fill="#000" width="450.29962158203125" height="75" opacity="1"></rect></mask><g transform="translate(106.27236254616173 309.45182612729195) rotate(0 293.2289161484988 34.26469735716981)"><text x="225.14981079101562" y="0" font-family="Virgil, Segoe UI Emoji" font-size="20px" fill="#000000" text-anchor="middle" style="white-space: pre;" direction="ltr" dominant-baseline="text-before-edge">scrapes metrics from</text><text x="225.14981079101562" y="25" font-family="Virgil, Segoe UI Emoji" font-size="20px" fill="#000000" text-anchor="middle" style="white-space: pre;" direction="ltr" dominant-baseline="text-before-edge">-</text><text x="225.14981079101562" y="50" font-family="Virgil, Segoe UI Emoji" font-size="20px" fill="#000000" text-anchor="middle" style="white-space: pre;" direction="ltr" dominant-baseline="text-before-edge">HTTP GET host.docker.internal:8000/metrics</text></g><g mask="url(#mask-9Rqh09PFWmf8JhrrUIfLR)" stroke-linecap="round"><g transform="translate(1229.0988869329726 355.57937318919016) rotate(0 -4.272197808577232 -127.24505369955065)"><path d="M-0.45 0.94 C40.14 -37.97, 287.83 -191.44, 244.52 -232.65 C201.21 -273.86, -176.53 -244.11, -260.3 -246.3 M1.52 0.38 C42.39 -38.91, 289.96 -193.24, 246.71 -234.24 C203.46 -275.23, -173.38 -243.79, -258 -245.59" stroke="#000000" stroke-width="1" fill="none"></path></g><g transform="translate(1229.0988869329726 355.57937318919016) rotate(0 -4.272197808577232 -127.24505369955065)"><path d="M-228.6 -258.43 C-238.96 -254.48, -253.19 -246.6, -259.12 -244.45 M-231.02 -257.44 C-236.16 -253.98, -241.32 -251.23, -258.17 -244.74" stroke="#000000" stroke-width="1" fill="none"></path></g><g transform="translate(1229.0988869329726 355.57937318919016) rotate(0 -4.272197808577232 -127.24505369955065)"><path d="M-227.93 -237.92 C-238.69 -241.77, -253.16 -241.69, -259.12 -244.45 M-230.36 -236.93 C-235.62 -237.95, -240.93 -239.67, -258.17 -244.74" stroke="#000000" stroke-width="1" fill="none"></path></g></g><mask id="mask-9Rqh09PFWmf8JhrrUIfLR"><rect x="0" y="0" fill="#fff" width="1833.8041780510714" height="700.7224142848928"></rect><rect x="1276.1359657812498" y="71.90580556117544" fill="#000" width="396.95965576171875" height="100" opacity="1"></rect></mask><g transform="translate(1276.1359657812498 71.90580556117544) rotate(0 -51.30927665685431 156.42851392846407)"><text x="198.47982788085938" y="0" font-family="Virgil, Segoe UI Emoji" font-size="20px" fill="#000000" text-anchor="middle" style="white-space: pre;" direction="ltr" dominant-baseline="text-before-edge">scrapes metrics from</text><text x="198.47982788085938" y="25" font-family="Virgil, Segoe UI Emoji" font-size="20px" fill="#000000" text-anchor="middle" style="white-space: pre;" direction="ltr" dominant-baseline="text-before-edge">-</text><text x="198.47982788085938" y="50" font-family="Virgil, Segoe UI Emoji" font-size="20px" fill="#000000" text-anchor="middle" style="white-space: pre;" direction="ltr" dominant-baseline="text-before-edge">HTTP GET otel-collector:8888/metrics</text><text x="198.47982788085938" y="75" font-family="Virgil, Segoe UI Emoji" font-size="20px" fill="#000000" text-anchor="middle" style="white-space: pre;" direction="ltr" dominant-baseline="text-before-edge">HTTP GET otel-collector:8889/metrics</text></g><g mask="url(#mask-a46IHv5qs2sOJZdOWW8-H)" stroke-linecap="round"><g transform="translate(1156.3441902417949 403.54212145989493) rotate(0 194.42645264167624 174.39009215386707)"><path d="M1.13 -0.41 C38.02 27.86, 156.32 111.83, 220.9 170.31 C285.47 228.78, 360.74 320.56, 388.59 350.45 M0.26 -1.67 C37.55 26.7, 158.47 113.23, 223.03 171.62 C287.59 230, 360.18 318.76, 387.64 348.64" stroke="#000000" stroke-width="1" fill="none"></path></g><g transform="translate(1156.3441902417949 403.54212145989493) rotate(0 194.42645264167624 174.39009215386707)"><path d="M360.64 332.39 C367.52 337.11, 376.76 339.9, 388.05 349.3 M360.33 333.9 C367.83 337.35, 374.28 340.98, 388.51 349.47" stroke="#000000" stroke-width="1" fill="none"></path></g><g transform="translate(1156.3441902417949 403.54212145989493) rotate(0 194.42645264167624 174.39009215386707)"><path d="M376.06 318.85 C379.01 327.23, 384.25 333.54, 388.05 349.3 M375.75 320.36 C379.71 326.89, 382.58 333.66, 388.51 349.47" stroke="#000000" stroke-width="1" fill="none"></path></g></g><mask id="mask-a46IHv5qs2sOJZdOWW8-H"><rect x="0" y="0" fill="#fff" width="1645.3081510534453" height="852.98371224137"></rect><rect x="1228.365819707535" y="536.7810249803318" fill="#000" width="299.959716796875" height="75" opacity="1"></rect></mask><g transform="translate(1228.365819707535 536.7810249803317) rotate(0 122.40482317593609 41.15118863343022)"><text x="149.9798583984375" y="0" font-family="Virgil, Segoe UI Emoji" font-size="20px" fill="#000000" text-anchor="middle" style="white-space: pre;" direction="ltr" dominant-baseline="text-before-edge">send alert events</text><text x="149.9798583984375" y="25" font-family="Virgil, Segoe UI Emoji" font-size="20px" fill="#000000" text-anchor="middle" style="white-space: pre;" direction="ltr" dominant-baseline="text-before-edge">-</text><text x="149.9798583984375" y="50" font-family="Virgil, Segoe UI Emoji" font-size="20px" fill="#000000" text-anchor="middle" style="white-space: pre;" direction="ltr" dominant-baseline="text-before-edge">prometheus-alertmanager:9093</text></g><g mask="url(#mask-QmwltJvNsxqr_OATpKQ45)" stroke-linecap="round"><g transform="translate(1908.8654898699056 396.92093244049727) rotate(0 -337.12330798562033 -11.159077567848172)"><path d="M-0.81 -0.83 C-60.44 -0.73, -244.74 4, -357.11 0.45 C-469.48 -3.1, -622.05 -18.11, -675.01 -22.13 M0.96 1.35 C-58.93 1.12, -245.64 2.97, -358.34 -1.27 C-471.03 -5.51, -621.99 -20.46, -675.21 -24.08" stroke="#000000" stroke-width="1" fill="none"></path></g><g transform="translate(1908.8654898699056 396.92093244049727) rotate(0 -337.12330798562033 -11.159077567848172)"><path d="M-647.67 -32.92 C-655.31 -27.6, -665.67 -24.57, -676.56 -22.11 M-645.85 -32.83 C-654.98 -30.11, -664.44 -27.26, -675.06 -24.18" stroke="#000000" stroke-width="1" fill="none"></path></g><g transform="translate(1908.8654898699056 396.92093244049727) rotate(0 -337.12330798562033 -11.159077567848172)"><path d="M-649.32 -12.46 C-656.35 -14.42, -666.12 -18.67, -676.56 -22.11 M-647.5 -12.38 C-656.08 -16.36, -665 -20.24, -675.06 -24.18" stroke="#000000" stroke-width="1" fill="none"></path></g></g><mask id="mask-QmwltJvNsxqr_OATpKQ45"><rect x="0" y="0" fill="#fff" width="2684.9551877130134" height="519.7817908669946"></rect><rect x="1457.4864298880643" y="359.10002807548665" fill="#000" width="189.59983825683594" height="75" opacity="1"></rect></mask><g transform="translate(1457.4864298880643 359.10002807548665) rotate(0 114.25575199622102 26.661826797162448)"><text x="94.79991912841797" y="0" font-family="Virgil, Segoe UI Emoji" font-size="20px" fill="#000000" text-anchor="middle" style="white-space: pre;" direction="ltr" dominant-baseline="text-before-edge">use as datasource</text><text x="94.79991912841797" y="25" font-family="Virgil, Segoe UI Emoji" font-size="20px" fill="#000000" text-anchor="middle" style="white-space: pre;" direction="ltr" dominant-baseline="text-before-edge">-</text><text x="94.79991912841797" y="50" font-family="Virgil, Segoe UI Emoji" font-size="20px" fill="#000000" text-anchor="middle" style="white-space: pre;" direction="ltr" dominant-baseline="text-before-edge">prometheus:9090</text></g><g mask="url(#mask-FA_kR30nhI9_tUhPVKnyC)" stroke-linecap="round"><g transform="translate(1964.8517862312453 468.6704017257681) rotate(0 -191.096361121547 141.33060459713235)"><path d="M0.8 -0.38 C-28.38 22.14, -111.88 88.26, -175.77 135.51 C-239.66 182.76, -347.94 258.58, -382.54 283.11 M-0.24 -1.62 C-29.47 20.48, -112.63 85.9, -176.42 133.55 C-240.21 181.2, -348.52 259.3, -382.99 284.28" stroke="#000000" stroke-width="1" fill="none"></path></g><g transform="translate(1964.8517862312453 468.6704017257681) rotate(0 -191.096361121547 141.33060459713235)"><path d="M-366.79 260.37 C-369.67 266.59, -374.74 271.25, -384.17 285.97 M-366.11 259.76 C-371.25 267.27, -377.33 276.74, -383.3 284.97" stroke="#000000" stroke-width="1" fill="none"></path></g><g transform="translate(1964.8517862312453 468.6704017257681) rotate(0 -191.096361121547 141.33060459713235)"><path d="M-354.76 277 C-360.62 279.26, -368.61 279.88, -384.17 285.97 M-354.08 276.38 C-363.33 278.22, -373.45 282.11, -383.3 284.97" stroke="#000000" stroke-width="1" fill="none"></path></g></g><mask id="mask-FA_kR30nhI9_tUhPVKnyC"><rect x="0" y="0" fill="#fff" width="2447.994906930887" height="852.0707269659026"></rect><rect x="1638.544734484651" y="566.3806464564585" fill="#000" width="299.959716796875" height="75" opacity="1"></rect></mask><g transform="translate(1638.5447344846511 566.3806464564585) rotate(0 135.2106906250473 43.62035986644193)"><text x="149.9798583984375" y="0" font-family="Virgil, Segoe UI Emoji" font-size="20px" fill="#000000" text-anchor="middle" style="white-space: pre;" direction="ltr" dominant-baseline="text-before-edge">use as datasource</text><text x="149.9798583984375" y="25" font-family="Virgil, Segoe UI Emoji" font-size="20px" fill="#000000" text-anchor="middle" style="white-space: pre;" direction="ltr" dominant-baseline="text-before-edge">-</text><text x="149.9798583984375" y="50" font-family="Virgil, Segoe UI Emoji" font-size="20px" fill="#000000" text-anchor="middle" style="white-space: pre;" direction="ltr" dominant-baseline="text-before-edge">prometheus-alertmanager:9093</text></g><g transform="translate(1743.253488490617 37.436006201020575) rotate(0 152.24911499023438 31.655965430531463)"><text x="0" y="0" font-family="Virgil, Segoe UI Emoji" font-size="50.64954468885034px" fill="#1864ab" text-anchor="start" style="white-space: pre;" direction="ltr" dominant-baseline="text-before-edge">Docker Host</text></g><g mask="url(#mask-mzNl4mkAQxPG6zh14ss0E)" stroke-linecap="round"><g transform="translate(1605.1292561973628 872.1333097505535) rotate(0 -760.1546071337716 15.81804833555617)"><path d="M1.16 0.18 C-165.49 33.36, -746.36 228.51, -1000.05 200.09 C-1253.75 171.67, -1434.15 -108.55, -1521.03 -170.35 M0.31 -0.77 C-166.45 32.45, -747.19 229.73, -1000.82 201.13 C-1254.45 172.54, -1434.79 -110.56, -1521.47 -172.32" stroke="#000000" stroke-width="1" fill="none"></path></g><g transform="translate(1605.1292561973628 872.1333097505535) rotate(0 -760.1546071337716 15.81804833555617)"><path d="M-1493.96 -159.09 C-1503.72 -162.02, -1508.77 -166.1, -1520.88 -171.12 M-1494.66 -158.8 C-1506.05 -163.78, -1515.67 -168.9, -1521.49 -171.62" stroke="#000000" stroke-width="1" fill="none"></path></g><g transform="translate(1605.1292561973628 872.1333097505535) rotate(0 -760.1546071337716 15.81804833555617)"><path d="M-1508.46 -144.56 C-1514.18 -151.79, -1515.08 -160.03, -1520.88 -171.12 M-1509.15 -144.27 C-1514.8 -155.04, -1518.67 -165.93, -1521.49 -171.62" stroke="#000000" stroke-width="1" fill="none"></path></g></g><mask id="mask-mzNl4mkAQxPG6zh14ss0E"><rect x="0" y="0" fill="#fff" width="3226.762205703704" height="1344.2186159952018"></rect><rect x="371.11575723888245" y="1035.6568748321574" fill="#000" width="467.2196044921875" height="75" opacity="1"></rect></mask><g transform="translate(371.11575723888234 1035.6568748321574) rotate(0 473.85889182470885 -147.70551674604775)"><text x="233.60980224609375" y="0" font-family="Virgil, Segoe UI Emoji" font-size="20px" fill="#000000" text-anchor="middle" style="white-space: pre;" direction="ltr" dominant-baseline="text-before-edge">notify webhook</text><text x="233.60980224609375" y="25" font-family="Virgil, Segoe UI Emoji" font-size="20px" fill="#000000" text-anchor="middle" style="white-space: pre;" direction="ltr" dominant-baseline="text-before-edge">-</text><text x="233.60980224609375" y="50" font-family="Virgil, Segoe UI Emoji" font-size="20px" fill="#000000" text-anchor="middle" style="white-space: pre;" direction="ltr" dominant-baseline="text-before-edge">HTTP POST host.docker.internal:8000/webhook</text></g></svg>