<svg version="1.1" xmlns="http://www.w3.org/2000/svg" viewBox="0 0 2471.6501838309887 1388.8821191196766" width="2471.6501838309887" height="1388.8821191196766">
  <!-- svg-source:excalidraw -->
  
  <defs>
    <style class="style-fonts">
      @font-face {
        font-family: "Virgil";
        src: url("https://excalidraw.com/Virgil.woff2");
      }
      @font-face {
        font-family: "Cascadia";
        src: url("https://excalidraw.com/Cascadia.woff2");
      }
    </style>
  </defs>
  <rect x="0" y="0" width="2471.6501838309887" height="1388.8821191196766" fill="#ffffff"></rect><g stroke-linecap="round" transform="translate(438.94199799568173 301.7737721554912) rotate(0 1011.3540929176534 538.5541734820928)"><path d="M32 0 M32 0 C579.04 0.48, 1125.35 0.12, 1990.71 0 M32 0 C683.95 -6.52, 1335.9 -7.02, 1990.71 0 M1990.71 0 C2010.78 -1.77, 2024.22 11.87, 2022.71 32 M1990.71 0 C2010.01 -1.99, 2020.82 11.49, 2022.71 32 M2022.71 32 C2019.85 239.94, 2020.98 447.42, 2022.71 1045.11 M2022.71 32 C2024.16 341.82, 2024.85 650.52, 2022.71 1045.11 M2022.71 1045.11 C2023.14 1066.44, 2010.84 1076.18, 1990.71 1077.11 M2022.71 1045.11 C2023.4 1064.86, 2010.83 1077.34, 1990.71 1077.11 M1990.71 1077.11 C1362.89 1073.49, 736.47 1073.27, 32 1077.11 M1990.71 1077.11 C1383.85 1071.88, 776.55 1072.05, 32 1077.11 M32 1077.11 C9.64 1076.43, -1.69 1066.05, 0 1045.11 M32 1077.11 C11.48 1075.5, -1.73 1068.2, 0 1045.11 M0 1045.11 C2.02 833.05, 2.28 622.71, 0 32 M0 1045.11 C2.15 821.47, 2.48 597.77, 0 32 M0 32 C-1 11.02, 8.82 -1.83, 32 0 M0 32 C-0.79 9.01, 10.23 2.14, 32 0" stroke="#000000" stroke-width="1" fill="none"></path></g><g stroke-linecap="round" transform="translate(230.44779272569008 10) rotate(0 157 86.5)"><path d="M32 0 M32 0 C110.37 2.28, 185.54 -0.71, 282 0 M32 0 C109.01 -1.16, 184.11 -1.45, 282 0 M282 0 C302.45 -1, 314.59 12.65, 314 32 M282 0 C304.37 -1.97, 315.78 9.65, 314 32 M314 32 C316.2 73.65, 315.03 119.75, 314 141 M314 32 C313.77 55.97, 314.62 78.89, 314 141 M314 141 C313.58 162.74, 302.97 173.45, 282 173 M314 141 C314.24 163.87, 304.26 173.17, 282 173 M282 173 C189.43 174.7, 93.38 173.15, 32 173 M282 173 C214.69 173.3, 146.4 174.06, 32 173 M32 173 C10.11 171.54, 0.04 162.97, 0 141 M32 173 C9.59 171.63, 1.89 164, 0 141 M0 141 C0.17 117.45, -2.12 96.81, 0 32 M0 141 C1.02 117.82, 0.9 92.85, 0 32 M0 32 C-1.61 12.01, 8.97 0.3, 32 0 M0 32 C0.01 10.78, 10.45 -0.17, 32 0" stroke="#000000" stroke-width="1" fill="none"></path></g><g transform="translate(290.7079093028385 84) rotate(0 96.73988342285156 12.5)"><text x="96.73988342285156" y="0" font-family="Virgil, Segoe UI Emoji" font-size="20px" fill="#000000" text-anchor="middle" style="white-space: pre;" direction="ltr" dominant-baseline="text-before-edge">prometheus-otel-poc</text></g><g stroke-linecap="round" transform="translate(567.256248136059 398.7403379131632) rotate(0 210.9038475623155 76.45916237396546)"><path d="M32 0 M32 0 C144.56 0.84, 254.56 0.58, 389.81 0 M32 0 C108.14 -0.37, 184.18 -0.33, 389.81 0 M389.81 0 C409.33 1.53, 422.29 12.09, 421.81 32 M389.81 0 C409.19 -2.01, 420.7 9.28, 421.81 32 M421.81 32 C422.43 49.46, 419.31 69.82, 421.81 120.92 M421.81 32 C422.38 53.96, 422.12 73.22, 421.81 120.92 M421.81 120.92 C423.78 142.52, 412.11 151.41, 389.81 152.92 M421.81 120.92 C419.68 143.12, 409.11 150.75, 389.81 152.92 M389.81 152.92 C276.44 151.58, 161.45 152.89, 32 152.92 M389.81 152.92 C264.6 155.01, 139.94 154.63, 32 152.92 M32 152.92 C9.23 154.48, 0.87 141.81, 0 120.92 M32 152.92 C10.18 154.86, 0.12 140.95, 0 120.92 M0 120.92 C-1.01 100.47, 1.13 77.56, 0 32 M0 120.92 C-0.5 96.05, 0.16 70.63, 0 32 M0 32 C1.51 11.25, 10.2 0.85, 32 0 M0 32 C-0.62 10.14, 11.73 1.17, 32 0" stroke="#000000" stroke-width="1" fill="none"></path></g><g transform="translate(665.9802174635112 462.69950028712867) rotate(0 112.17987823486328 12.5)"><text x="112.17987823486328" y="0" font-family="Virgil, Segoe UI Emoji" font-size="20px" fill="#000000" text-anchor="middle" style="white-space: pre;" direction="ltr" dominant-baseline="text-before-edge">opentelemetry-collector</text></g><g stroke-linecap="round" transform="translate(1756.63565781844 1167.7529352618608) rotate(0 192.40826639974625 80.72111276580165)"><path d="M32 0 M32 0 C106.25 1.02, 180.43 2, 352.82 0 M32 0 C144.32 -0.87, 256.78 -0.45, 352.82 0 M352.82 0 C373.73 0.27, 386.58 9.7, 384.82 32 M352.82 0 C374.6 2.2, 383.01 11.88, 384.82 32 M384.82 32 C383.98 63.69, 381.88 92.89, 384.82 129.44 M384.82 32 C384.63 52.97, 384.28 72.69, 384.82 129.44 M384.82 129.44 C384.7 151.64, 374 160.94, 352.82 161.44 M384.82 129.44 C385.16 151.12, 376.31 162.93, 352.82 161.44 M352.82 161.44 C242.41 164.73, 132.67 163.79, 32 161.44 M352.82 161.44 C258.42 163, 164.36 162.62, 32 161.44 M32 161.44 C12.49 160.59, 1.83 151.65, 0 129.44 M32 161.44 C12.96 163.4, 0.1 152.09, 0 129.44 M0 129.44 C-1.47 93.42, 1.93 53.27, 0 32 M0 129.44 C-0.33 94.29, -0.52 60.18, 0 32 M0 32 C1.69 12.02, 9.78 -0.86, 32 0 M0 32 C-0.2 11.84, 10.84 1.79, 32 0" stroke="#000000" stroke-width="1" fill="none"></path></g><g transform="translate(1827.3540438470925 1235.9740480276623) rotate(0 121.68988037109375 12.5)"><text x="121.68988037109375" y="0" font-family="Virgil, Segoe UI Emoji" font-size="20px" fill="#000000" text-anchor="middle" style="white-space: pre;" direction="ltr" dominant-baseline="text-before-edge">prometheus-alertmanager</text></g><g stroke-linecap="round" transform="translate(1217.4226259100396 687.8544342487016) rotate(0 192.40826639974625 80.72111276580165)"><path d="M32 0 M32 0 C139.52 -1.2, 245.5 0.03, 352.82 0 M32 0 C106.21 2.14, 181.08 1.66, 352.82 0 M352.82 0 C375.33 1.96, 383.09 10.47, 384.82 32 M352.82 0 C375.68 2.09, 382.59 12.52, 384.82 32 M384.82 32 C383.26 65.44, 384.32 100.32, 384.82 129.44 M384.82 32 C385.8 60.72, 386.48 90.24, 384.82 129.44 M384.82 129.44 C386.61 151.76, 375.02 160.8, 352.82 161.44 M384.82 129.44 C383.5 150.52, 373.76 160.58, 352.82 161.44 M352.82 161.44 C284.25 163.77, 213.59 163.3, 32 161.44 M352.82 161.44 C232.08 163.44, 111.64 163.08, 32 161.44 M32 161.44 C12.01 160.45, 0.29 152.53, 0 129.44 M32 161.44 C8.64 161.21, -1.46 152.09, 0 129.44 M0 129.44 C1.05 98.33, 0.32 63.88, 0 32 M0 129.44 C1.25 105.54, 0.14 81.82, 0 32 M0 32 C0.66 11.16, 9.65 -1.32, 32 0 M0 32 C-0.71 12.95, 8.86 -1.2, 32 0" stroke="#000000" stroke-width="1" fill="none"></path></g><g transform="translate(1356.0909554811726 756.0755470145033) rotate(0 53.73993682861328 12.5)"><text x="53.73993682861328" y="0" font-family="Virgil, Segoe UI Emoji" font-size="20px" fill="#000000" text-anchor="middle" style="white-space: pre;" direction="ltr" dominant-baseline="text-before-edge">prometheus</text></g><g stroke-linecap="round" transform="translate(600.1323986206664 814.9094377886544) rotate(0 192.40826639974625 80.72111276580165)"><path d="M32 0 M32 0 C151.95 -1.88, 271.21 -3.01, 352.82 0 M32 0 C142.1 0.43, 253.42 0.99, 352.82 0 M352.82 0 C373.14 -1.32, 384.2 12.65, 384.82 32 M352.82 0 C372.34 -1.2, 383.02 8.6, 384.82 32 M384.82 32 C384.64 61.97, 385.84 93.29, 384.82 129.44 M384.82 32 C385.67 58.09, 384.12 86.08, 384.82 129.44 M384.82 129.44 C385.8 150.29, 375.82 162.62, 352.82 161.44 M384.82 129.44 C386.35 148.72, 373.09 161.44, 352.82 161.44 M352.82 161.44 C273.9 159.08, 191.7 160.96, 32 161.44 M352.82 161.44 C252.33 162.41, 151.52 163.13, 32 161.44 M32 161.44 C9.82 162.51, 1.33 149.49, 0 129.44 M32 161.44 C11.58 161.36, 1.05 149.02, 0 129.44 M0 129.44 C-2.7 109.97, -0.42 86.87, 0 32 M0 129.44 C-0.02 97.5, 0.25 64.8, 0 32 M0 32 C0.6 9.89, 9.34 0.06, 32 0 M0 32 C-2.05 11.1, 10.95 -0.17, 32 0" stroke="#000000" stroke-width="1" fill="none"></path></g><g transform="translate(673.460792889065 883.130550554456) rotate(0 119.07987213134766 12.5)"><text x="119.07987213134766" y="0" font-family="Virgil, Segoe UI Emoji" font-size="20px" fill="#000000" text-anchor="middle" style="white-space: pre;" direction="ltr" dominant-baseline="text-before-edge">prometheus-pushgateway</text></g><g stroke-linecap="round" transform="translate(2025.375190544692 650.5183706760351) rotate(0 192.40826639974625 80.72111276580165)"><path d="M32 0 M32 0 C134.27 -2.7, 239.19 -0.74, 352.82 0 M32 0 C120.9 -1.95, 208.54 -1.32, 352.82 0 M352.82 0 C373.14 0.75, 383.87 12.2, 384.82 32 M352.82 0 C372 -1.87, 385.76 10.97, 384.82 32 M384.82 32 C384.08 62.84, 386.13 94.28, 384.82 129.44 M384.82 32 C385.86 66.39, 385.92 100.09, 384.82 129.44 M384.82 129.44 C383.15 152.36, 376.05 159.51, 352.82 161.44 M384.82 129.44 C386.7 151.18, 373.75 162.07, 352.82 161.44 M352.82 161.44 C271.12 160.14, 188.35 160.83, 32 161.44 M352.82 161.44 C268.35 161.64, 185.22 161.46, 32 161.44 M32 161.44 C12.07 159.77, -1.16 152.67, 0 129.44 M32 161.44 C12.04 160.25, 1.73 148.83, 0 129.44 M0 129.44 C-1.35 97.81, -1.81 71.3, 0 32 M0 129.44 C-0.57 107.06, 0.57 83.12, 0 32 M0 32 C0.43 12.03, 9.22 0.8, 32 0 M0 32 C-0.29 9.04, 9.97 -0.33, 32 0" stroke="#000000" stroke-width="1" fill="none"></path></g><g transform="translate(2178.933481358501 718.7394834418368) rotate(0 38.8499755859375 12.5)"><text x="38.8499755859375" y="0" font-family="Virgil, Segoe UI Emoji" font-size="20px" fill="#000000" text-anchor="middle" style="white-space: pre;" direction="ltr" dominant-baseline="text-before-edge">grafana</text></g><g mask="url(#mask-ig0VI_QFDecRRx-LPbuZC)" stroke-linecap="round"><g transform="translate(432.5163940319768 198.76581946878912) rotate(0 -66.0164717947161 348.10734495232697)"><path d="M0.52 -1.07 C-47.25 59.33, -313.72 245.45, -287.49 361.65 C-261.26 477.85, 83.61 640.2, 157.91 696.14 M-0.66 0.99 C-48.47 61.1, -314.43 243.76, -288.12 359.81 C-261.81 475.85, 82.73 641.4, 157.22 697.28" stroke="#000000" stroke-width="1" fill="none"></path></g><g transform="translate(432.5163940319768 198.76581946878912) rotate(0 -66.0164717947161 348.10734495232697)"><path d="M126.03 692.37 C135.44 692.83, 140.78 694.85, 158.51 696.61 M128.23 690.39 C134.16 692.1, 142.22 693.21, 157.05 697.99" stroke="#000000" stroke-width="1" fill="none"></path></g><g transform="translate(432.5163940319768 198.76581946878912) rotate(0 -66.0164717947161 348.10734495232697)"><path d="M136.71 674.85 C143.55 679.39, 146.42 685.45, 158.51 696.61 M138.91 672.86 C142.48 678.58, 148.12 683.67, 157.05 697.99" stroke="#000000" stroke-width="1" fill="none"></path></g></g><mask id="mask-ig0VI_QFDecRRx-LPbuZC"><rect x="0" y="0" fill="#fff" width="978.3824421710159" height="995.2305359063762"></rect><rect x="10" y="522.3749537672684" fill="#000" width="268.85980224609375" height="75" opacity="1"></rect></mask><g transform="translate(10 522.3749537672684) rotate(0 356.4999222372607 24.498210653847764)"><text x="134.42990112304688" y="0" font-family="Virgil, Segoe UI Emoji" font-size="20px" fill="#000000" text-anchor="middle" style="white-space: pre;" direction="ltr" dominant-baseline="text-before-edge">push metrics to</text><text x="134.42990112304688" y="25" font-family="Virgil, Segoe UI Emoji" font-size="20px" fill="#000000" text-anchor="middle" style="white-space: pre;" direction="ltr" dominant-baseline="text-before-edge">-</text><text x="134.42990112304688" y="50" font-family="Virgil, Segoe UI Emoji" font-size="20px" fill="#000000" text-anchor="middle" style="white-space: pre;" direction="ltr" dominant-baseline="text-before-edge">HTTP POST localhost:9091</text></g><g mask="url(#mask-_NZxbol9_4wFdH4E9Xl0o)" stroke-linecap="round"><g transform="translate(1389.9679242586756 874.039219776399) rotate(0 -307.2592119703248 148.4583234608375)"><path d="M-0.54 -0.9 C-62.36 48.46, -269.44 276.09, -371.91 295.23 C-474.39 314.36, -574.58 143.92, -615.38 113.9 M1.38 1.24 C-60.54 50.82, -270.1 277.43, -372.98 296.36 C-475.86 315.29, -575.25 144.81, -615.9 114.82" stroke="#000000" stroke-width="1" fill="none"></path></g><g transform="translate(1389.9679242586756 874.039219776399) rotate(0 -307.2592119703248 148.4583234608375)"><path d="M-590.84 128.39 C-596.33 126.37, -602.13 121.15, -615.17 115.34 M-588.86 128.18 C-595.24 124.96, -600.71 122.17, -615.51 114.07" stroke="#000000" stroke-width="1" fill="none"></path></g><g transform="translate(1389.9679242586756 874.039219776399) rotate(0 -307.2592119703248 148.4583234608375)"><path d="M-606.03 142.2 C-608.07 137.22, -610.54 128.97, -615.17 115.34 M-604.04 141.99 C-607.15 135.9, -609.4 130.19, -615.51 114.07" stroke="#000000" stroke-width="1" fill="none"></path></g></g><mask id="mask-_NZxbol9_4wFdH4E9Xl0o"><rect x="0" y="0" fill="#fff" width="2105.8097729844994" height="1270.0348619726346"></rect><rect x="774.74767828217" y="1132.5348619726346" fill="#000" width="487.0595703125" height="75" opacity="1"></rect></mask><g transform="translate(774.74767828217 1132.5348619726346) rotate(0 307.96103400618074 -110.03731873539806)"><text x="243.52978515625" y="0" font-family="Virgil, Segoe UI Emoji" font-size="20px" fill="#000000" text-anchor="middle" style="white-space: pre;" direction="ltr" dominant-baseline="text-before-edge">scrapes metrics from</text><text x="243.52978515625" y="25" font-family="Virgil, Segoe UI Emoji" font-size="20px" fill="#000000" text-anchor="middle" style="white-space: pre;" direction="ltr" dominant-baseline="text-before-edge">-</text><text x="243.52978515625" y="50" font-family="Virgil, Segoe UI Emoji" font-size="20px" fill="#000000" text-anchor="middle" style="white-space: pre;" direction="ltr" dominant-baseline="text-before-edge">HTTP GET prometheus-pushgateway:9091/metrics</text></g><g mask="url(#mask-v8rWvNYJQi9TQf0VRPOWq)" stroke-linecap="round"><g transform="translate(782.6846335286201 374.90007108169607) rotate(0 -6.665312103483302 -137.58003187245808)"><path d="M0.47 -0.92 C35.05 -41.69, 244.36 -197.95, 206.84 -243.86 C169.32 -289.77, -152.7 -271.05, -224.65 -276.37 M-0.74 1.21 C33.72 -39.42, 242.65 -196.32, 205.74 -242.38 C168.84 -288.45, -150.36 -269.8, -222.18 -275.16" stroke="#000000" stroke-width="1" fill="none"></path></g><g transform="translate(782.6846335286201 374.90007108169607) rotate(0 -6.665312103483302 -137.58003187245808)"><path d="M-195.45 -285.71 C-200.97 -284.01, -208.01 -281.9, -221.58 -276.94 M-194.17 -285.11 C-203.91 -281, -215.59 -278.83, -222.61 -274.27" stroke="#000000" stroke-width="1" fill="none"></path></g><g transform="translate(782.6846335286201 374.90007108169607) rotate(0 -6.665312103483302 -137.58003187245808)"><path d="M-195.58 -265.18 C-201.19 -268.51, -208.21 -271.42, -221.58 -276.94 M-194.3 -264.59 C-203.86 -267.98, -215.5 -273.3, -222.61 -274.27" stroke="#000000" stroke-width="1" fill="none"></path></g></g><mask id="mask-v8rWvNYJQi9TQf0VRPOWq"><rect x="0" y="0" fill="#fff" width="1313.6446930974776" height="751.076161248174"></rect><rect x="825.5185762079766" y="81.15495181419104" fill="#000" width="328.5596923828125" height="100" opacity="1"></rect></mask><g transform="translate(825.5185762079766 81.15495181419101) rotate(0 -49.499254782839785 156.16508739504698)"><text x="164.27984619140625" y="0" font-family="Virgil, Segoe UI Emoji" font-size="20px" fill="#000000" text-anchor="middle" style="white-space: pre;" direction="ltr" dominant-baseline="text-before-edge">scrapes metrics from</text><text x="164.27984619140625" y="25" font-family="Virgil, Segoe UI Emoji" font-size="20px" fill="#000000" text-anchor="middle" style="white-space: pre;" direction="ltr" dominant-baseline="text-before-edge">-</text><text x="164.27984619140625" y="50" font-family="Virgil, Segoe UI Emoji" font-size="20px" fill="#000000" text-anchor="middle" style="white-space: pre;" direction="ltr" dominant-baseline="text-before-edge">HTTP GET </text><text x="164.27984619140625" y="75" font-family="Virgil, Segoe UI Emoji" font-size="20px" fill="#000000" text-anchor="middle" style="white-space: pre;" direction="ltr" dominant-baseline="text-before-edge">host.docker.internal:8000/metrics</text></g><g mask="url(#mask-9Rqh09PFWmf8JhrrUIfLR)" stroke-linecap="round"><g transform="translate(1421.424786504811 669.024694488435) rotate(0 -150.57920346400482 -104.96023649659938)"><path d="M-0.45 0.94 C14.82 -31.48, 161.57 -160.31, 92.6 -193.7 C23.63 -227.09, -330.15 -198.54, -414.26 -199.4 M1.52 0.38 C17.07 -32.42, 163.7 -162.11, 94.79 -195.29 C25.88 -228.47, -327 -198.22, -411.95 -198.7" stroke="#000000" stroke-width="1" fill="none"></path></g><g transform="translate(1421.424786504811 669.024694488435) rotate(0 -150.57920346400482 -104.96023649659938)"><path d="M-382.63 -211.73 C-392.97 -207.71, -407.16 -199.75, -413.07 -197.55 M-385.06 -210.74 C-390.18 -207.24, -395.32 -204.44, -412.13 -197.84" stroke="#000000" stroke-width="1" fill="none"></path></g><g transform="translate(1421.424786504811 669.024694488435) rotate(0 -150.57920346400482 -104.96023649659938)"><path d="M-381.82 -191.22 C-392.6 -195, -407.1 -194.84, -413.07 -197.55 M-384.24 -190.24 C-389.53 -191.21, -394.85 -192.89, -412.13 -197.84" stroke="#000000" stroke-width="1" fill="none"></path></g></g><mask id="mask-9Rqh09PFWmf8JhrrUIfLR"><rect x="0" y="0" fill="#fff" width="2028.1645052096876" height="967.2688643280318"></rect><rect x="1316.5402687940539" y="424.29934526161674" fill="#000" width="396.95965576171875" height="100" opacity="1"></rect></mask><g transform="translate(1316.5402687940539 424.29934526161674) rotate(0 -45.69468575324771 139.76511273021887)"><text x="198.47982788085938" y="0" font-family="Virgil, Segoe UI Emoji" font-size="20px" fill="#000000" text-anchor="middle" style="white-space: pre;" direction="ltr" dominant-baseline="text-before-edge">scrapes metrics from</text><text x="198.47982788085938" y="25" font-family="Virgil, Segoe UI Emoji" font-size="20px" fill="#000000" text-anchor="middle" style="white-space: pre;" direction="ltr" dominant-baseline="text-before-edge">-</text><text x="198.47982788085938" y="50" font-family="Virgil, Segoe UI Emoji" font-size="20px" fill="#000000" text-anchor="middle" style="white-space: pre;" direction="ltr" dominant-baseline="text-before-edge">HTTP GET otel-collector:8888/metrics</text><text x="198.47982788085938" y="75" font-family="Virgil, Segoe UI Emoji" font-size="20px" fill="#000000" text-anchor="middle" style="white-space: pre;" direction="ltr" dominant-baseline="text-before-edge">HTTP GET otel-collector:8889/metrics</text></g><g mask="url(#mask-a46IHv5qs2sOJZdOWW8-H)" stroke-linecap="round"><g transform="translate(1438.5009777626067 872.765508197092) rotate(0 150.45132159138083 185.32206155670912)"><path d="M1.13 -0.41 C50.96 61.31, 248.83 308.86, 298.51 371.01 M0.26 -1.67 C50.49 60.15, 250.97 310.27, 300.64 372.32" stroke="#000000" stroke-width="1" fill="none"></path></g><g transform="translate(1438.5009777626067 872.765508197092) rotate(0 150.45132159138083 185.32206155670912)"><path d="M274.32 354.89 C281.03 359.92, 290.1 363.02, 301.06 372.98 M274.02 356.4 C281.36 360.13, 287.65 364.03, 301.52 373.14" stroke="#000000" stroke-width="1" fill="none"></path></g><g transform="translate(1438.5009777626067 872.765508197092) rotate(0 150.45132159138083 185.32206155670912)"><path d="M290.34 342.06 C292.97 350.57, 297.87 357, 301.06 372.98 M290.03 343.57 C293.7 350.2, 296.27 357.09, 301.52 373.14" stroke="#000000" stroke-width="1" fill="none"></path></g></g><mask id="mask-a46IHv5qs2sOJZdOWW8-H"><rect x="0" y="0" fill="#fff" width="1838.1185316892008" height="1344.206146853375"></rect><rect x="1481.3998578753178" y="1008.4858275252335" fill="#000" width="213.81979370117188" height="100" opacity="1"></rect></mask><g transform="translate(1481.3998578753178 1008.4858275252336) rotate(0 107.55244147866964 49.601742228567616)"><text x="106.90989685058594" y="0" font-family="Virgil, Segoe UI Emoji" font-size="20px" fill="#000000" text-anchor="middle" style="white-space: pre;" direction="ltr" dominant-baseline="text-before-edge">send alert events</text><text x="106.90989685058594" y="25" font-family="Virgil, Segoe UI Emoji" font-size="20px" fill="#000000" text-anchor="middle" style="white-space: pre;" direction="ltr" dominant-baseline="text-before-edge">-</text><text x="106.90989685058594" y="50" font-family="Virgil, Segoe UI Emoji" font-size="20px" fill="#000000" text-anchor="middle" style="white-space: pre;" direction="ltr" dominant-baseline="text-before-edge">prometheus-alertmana</text><text x="106.90989685058594" y="75" font-family="Virgil, Segoe UI Emoji" font-size="20px" fill="#000000" text-anchor="middle" style="white-space: pre;" direction="ltr" dominant-baseline="text-before-edge">ger:9093</text></g><g mask="url(#mask-QmwltJvNsxqr_OATpKQ45)" stroke-linecap="round"><g transform="translate(2008.028079878449 728.9379747186557) rotate(0 -192.21199738104087 22.71308038470164)"><path d="M-0.81 -0.83 C-64.95 6.9, -320.54 38.41, -384.16 46.26 M0.96 1.35 C-63.44 8.75, -321.43 37.38, -385.39 44.54" stroke="#000000" stroke-width="1" fill="none"></path></g><g transform="translate(2008.028079878449 728.9379747186557) rotate(0 -192.21199738104087 22.71308038470164)"><path d="M-359.89 30.33 C-366.81 37.58, -376.44 42.52, -386.74 46.52 M-358.07 30.42 C-366.53 34.92, -375.32 39.53, -385.24 44.45" stroke="#000000" stroke-width="1" fill="none"></path></g><g transform="translate(2008.028079878449 728.9379747186557) rotate(0 -192.21199738104087 22.71308038470164)"><path d="M-357.62 50.73 C-365.33 50.7, -375.76 48.37, -386.74 46.52 M-355.8 50.81 C-365 48.6, -374.53 46.51, -385.24 44.45" stroke="#000000" stroke-width="1" fill="none"></path></g></g><mask id="mask-QmwltJvNsxqr_OATpKQ45"><rect x="0" y="0" fill="#fff" width="2491.6586064769212" height="874.4254777177531"></rect><rect x="1721.412897450795" y="714.1817262182044" fill="#000" width="189.59983825683594" height="75" opacity="1"></rect></mask><g transform="translate(1721.4128974507948 714.1817262182044) rotate(0 94.4031850466132 37.46932888515295)"><text x="94.79991912841797" y="0" font-family="Virgil, Segoe UI Emoji" font-size="20px" fill="#000000" text-anchor="middle" style="white-space: pre;" direction="ltr" dominant-baseline="text-before-edge">use as datasource</text><text x="94.79991912841797" y="25" font-family="Virgil, Segoe UI Emoji" font-size="20px" fill="#000000" text-anchor="middle" style="white-space: pre;" direction="ltr" dominant-baseline="text-before-edge">-</text><text x="94.79991912841797" y="50" font-family="Virgil, Segoe UI Emoji" font-size="20px" fill="#000000" text-anchor="middle" style="white-space: pre;" direction="ltr" dominant-baseline="text-before-edge">prometheus:9090</text></g><g mask="url(#mask-FA_kR30nhI9_tUhPVKnyC)" stroke-linecap="round"><g transform="translate(2230.623102029055 834.249358689023) rotate(0 -5.19699648892572 204.20534249218937)"><path d="M0.8 -0.38 C11.54 33.41, 76.5 134.91, 63.8 203.12 C51.1 271.33, -52.05 374.64, -75.38 408.86 M-0.24 -1.62 C10.45 31.75, 75.74 132.55, 63.15 201.16 C50.55 269.76, -52.63 375.36, -75.83 410.03" stroke="#000000" stroke-width="1" fill="none"></path></g><g transform="translate(2230.623102029055 834.249358689023) rotate(0 -5.19699648892572 204.20534249218937)"><path d="M-66.89 382.53 C-67.98 389.58, -71.29 395.11, -77.01 411.72 M-66.2 381.92 C-68.89 390.69, -72.54 401.37, -76.14 410.72" stroke="#000000" stroke-width="1" fill="none"></path></g><g transform="translate(2230.623102029055 834.249358689023) rotate(0 -5.19699648892572 204.20534249218937)"><path d="M-50.85 395.33 C-55.89 399.37, -63.1 401.79, -77.01 411.72 M-50.17 394.72 C-58.3 399.07, -67.33 405.45, -76.14 410.72" stroke="#000000" stroke-width="1" fill="none"></path></g></g><mask id="mask-FA_kR30nhI9_tUhPVKnyC"><rect x="0" y="0" fill="#fff" width="2469.849088926938" height="1343.3991597192717"></rect><rect x="2186.9539780523983" y="987.0650858441221" fill="#000" width="213.81979370117188" height="100" opacity="1"></rect></mask><g transform="translate(2186.9539780523983 987.0650858441222) rotate(0 38.4721274877312 51.38961533709025)"><text x="106.90989685058594" y="0" font-family="Virgil, Segoe UI Emoji" font-size="20px" fill="#000000" text-anchor="middle" style="white-space: pre;" direction="ltr" dominant-baseline="text-before-edge">use as datasource</text><text x="106.90989685058594" y="25" font-family="Virgil, Segoe UI Emoji" font-size="20px" fill="#000000" text-anchor="middle" style="white-space: pre;" direction="ltr" dominant-baseline="text-before-edge">-</text><text x="106.90989685058594" y="50" font-family="Virgil, Segoe UI Emoji" font-size="20px" fill="#000000" text-anchor="middle" style="white-space: pre;" direction="ltr" dominant-baseline="text-before-edge">prometheus-alertmana</text><text x="106.90989685058594" y="75" font-family="Virgil, Segoe UI Emoji" font-size="20px" fill="#000000" text-anchor="middle" style="white-space: pre;" direction="ltr" dominant-baseline="text-before-edge">ger:9093</text></g><g transform="translate(2015.9612358072593 319.5267567017671) rotate(0 211.32687377929688 43.93548131149136)"><text x="0" y="0" font-family="Virgil, Segoe UI Emoji" font-size="70.29677009838618px" fill="#000000" text-anchor="start" style="white-space: pre;" direction="ltr" dominant-baseline="text-before-edge">Docker Host</text></g></svg>